<?xml version="1.0" encoding="UTF-8"?>
<svg id="Layer_1" data-name="Layer 1" xmlns="http://www.w3.org/2000/svg" xmlns:xlink="http://www.w3.org/1999/xlink" viewBox="0 0 133.01 133.01">
  <defs>
    <style>
      .cls-1 {
        fill: #fff;
      }

      .cls-2 {
        fill: none;
      }

      .cls-3 {
        clip-path: url(#clippath);
      }
    </style>
    <clipPath id="clippath">
      <rect class="cls-2" x="0" width="133.01" height="133.01"/>
    </clipPath>
  </defs>
  <rect width="133.01" height="133.01"/>
  <g class="cls-3">
    <g>
      <path class="cls-1" d="M52.18,144.64v-32.25l-13.9,21.1h-.28l-13.76-20.89v32.04h-10.66v-49.4h11.71l12.98,20.89,12.98-20.89h11.71v49.4h-10.8Z"/>
      <path class="cls-1" d="M113.03,144.64l-4.52-11.08h-20.89l-4.52,11.08h-11.08l21.17-49.75h10.02l21.17,49.75h-11.36ZM98.07,107.94l-6.56,16.02h13.13l-6.56-16.02Z"/>
    </g>
    <g>
      <path class="cls-1" d="M49.87,45.01L24.81,12.12v32.89h-11.24V-6.73h10.5l24.24,31.86V-6.73h11.23v51.74h-9.68Z"/>
      <path class="cls-1" d="M99.03,45.9c-15.23,0-26.53-11.75-26.53-26.61v-.15c0-14.71,11.09-26.76,26.98-26.76,9.76,0,15.59,3.25,20.4,7.98l-7.24,8.35c-3.99-3.62-8.06-5.84-13.23-5.84-8.72,0-15,7.24-15,16.11v.15c0,8.87,6.13,16.26,15,16.26,5.91,0,9.53-2.37,13.6-6.06l7.24,7.32c-5.32,5.69-11.23,9.24-21.21,9.24Z"/>
    </g>
  </g>
</svg>